# xmcd
#
# Track frame offsets: 
#        150
#        5393
#        33019
#        53019
#        70698
#        95550
#        116151
#        127893
#        151532
#        173935
#        184761
#        203413
#        237347
#
# Disc length: 3276 seconds
#
# Revision: 1
# Processed by: cddbd v1.5.2PL0 Copyright (c) Steve Scherf et al.
# Submitted via: ExactAudioCopy v0.95a4
#
DISCID=970cca0d
DTITLE=Jason Marsalis - Music Update
DYEAR=2008
DGENRE=Jazz
TTITLE0=Guess Who's Back
TTITLE1=Offbeat Personality
TTITLE2=Ballet Classic
TTITLE3=Discipline Returns Once Again
TTITLE4=Characters
TTITLE5=Blues for the 29%ers (down to 19) 
TTITLE6=Discipline Vacations in Asia
TTITLE7=Midnight Sun
TTITLE8=Seven Come Eleven
TTITLE9=Discipline Mellows Out
TTITLE10=Durango Kid
TTITLE11=Western Vacation Ranch
TTITLE12=Discipline Spotted Baby and Zutty at Studio 54
EXTD=YEAR: 2008
EXTT0=
EXTT1=
EXTT2=
EXTT3=
EXTT4=
EXTT5=
EXTT6=
EXTT7=
EXTT8=
EXTT9=
EXTT10=
EXTT11=
EXTT12=
PLAYORDER=
